<svg width="369" height="431" viewBox="0 0 369 431" fill="none" xmlns="http://www.w3.org/2000/svg">
<path d="M34.0765 22.1459L28.1129 0L22.1493 22.1459L0 28.1087L22.1493 34.0714L28.1129 56.2174L34.0765 34.0714L56.2258 28.1087L34.0765 22.1459Z" fill="#181818"/>
<path d="M109.044 22.1459L103.081 0L97.117 22.1459L74.9677 28.1087L97.117 34.0714L103.081 56.2174L109.044 34.0714L131.194 28.1087L109.044 22.1459Z" fill="#181818"/>
<path d="M178.048 0L184.012 22.1459L206.161 28.1087L184.012 34.0714L178.048 56.2174L172.085 34.0714L149.935 28.1087L172.085 22.1459L178.048 0Z" fill="#181818"/>
<path d="M258.98 22.1459L253.016 0L247.052 22.1459L224.903 28.1087L247.052 34.0714L253.016 56.2174L258.98 34.0714L281.129 28.1087L258.98 22.1459Z" fill="#181818"/>
<path d="M327.984 0L333.948 22.1459L356.097 28.1087L333.948 34.0714L327.984 56.2174L322.02 34.0714L299.871 28.1087L322.02 22.1459L327.984 0Z" fill="#181818"/>
<path d="M408.915 22.1459L402.952 0L396.988 22.1459L374.839 28.1087L396.988 34.0714L402.952 56.2174L408.915 34.0714L431.065 28.1087L408.915 22.1459Z" fill="#181818"/>
<path d="M477.919 0L483.883 22.1459L506.032 28.1087L483.883 34.0714L477.919 56.2174L471.956 34.0714L449.806 28.1087L471.956 22.1459L477.919 0Z" fill="#181818"/>
<path d="M558.851 22.1459L552.887 0L546.923 22.1459L524.774 28.1087L546.923 34.0714L552.887 56.2174L558.851 34.0714L581 28.1087L558.851 22.1459Z" fill="#181818"/>
<path d="M28.1129 74.9565L34.0765 97.1025L56.2258 103.065L34.0765 109.028L28.1129 131.174L22.1493 109.028L0 103.065L22.1493 97.1025L28.1129 74.9565Z" fill="#181818"/>
<path d="M109.044 97.1025L103.081 74.9565L97.117 97.1025L74.9677 103.065L97.117 109.028L103.081 131.174L109.044 109.028L131.194 103.065L109.044 97.1025Z" fill="#181818"/>
<path d="M178.048 74.9565L184.012 97.1025L206.161 103.065L184.012 109.028L178.048 131.174L172.085 109.028L149.935 103.065L172.085 97.1025L178.048 74.9565Z" fill="#181818"/>
<path d="M258.98 97.1025L253.016 74.9565L247.052 97.1025L224.903 103.065L247.052 109.028L253.016 131.174L258.98 109.028L281.129 103.065L258.98 97.1025Z" fill="#181818"/>
<path d="M327.984 74.9565L333.948 97.1025L356.097 103.065L333.948 109.028L327.984 131.174L322.02 109.028L299.871 103.065L322.02 97.1025L327.984 74.9565Z" fill="#181818"/>
<path d="M408.915 97.1025L402.952 74.9565L396.988 97.1025L374.839 103.065L396.988 109.028L402.952 131.174L408.915 109.028L431.065 103.065L408.915 97.1025Z" fill="#181818"/>
<path d="M477.919 74.9565L483.883 97.1025L506.032 103.065L483.883 109.028L477.919 131.174L471.956 109.028L449.806 103.065L471.956 97.1025L477.919 74.9565Z" fill="#181818"/>
<path d="M558.851 97.1025L552.887 74.9565L546.923 97.1025L524.774 103.065L546.923 109.028L552.887 131.174L558.851 109.028L581 103.065L558.851 97.1025Z" fill="#181818"/>
<path d="M28.1129 149.913L34.0765 172.059L56.2258 178.022L34.0765 183.984L28.1129 206.13L22.1493 183.984L0 178.022L22.1493 172.059L28.1129 149.913Z" fill="#181818"/>
<path d="M109.044 172.059L103.081 149.913L97.117 172.059L74.9677 178.022L97.117 183.984L103.081 206.13L109.044 183.984L131.194 178.022L109.044 172.059Z" fill="#181818"/>
<path d="M178.048 149.913L184.012 172.059L206.161 178.022L184.012 183.984L178.048 206.13L172.085 183.984L149.935 178.022L172.085 172.059L178.048 149.913Z" fill="#181818"/>
<path d="M258.98 172.059L253.016 149.913L247.052 172.059L224.903 178.022L247.052 183.984L253.016 206.13L258.98 183.984L281.129 178.022L258.98 172.059Z" fill="#181818"/>
<path d="M327.984 149.913L333.948 172.059L356.097 178.022L333.948 183.984L327.984 206.13L322.02 183.984L299.871 178.022L322.02 172.059L327.984 149.913Z" fill="#181818"/>
<path d="M408.915 172.059L402.952 149.913L396.988 172.059L374.839 178.022L396.988 183.984L402.952 206.13L408.915 183.984L431.065 178.022L408.915 172.059Z" fill="#181818"/>
<path d="M477.919 149.913L483.883 172.059L506.032 178.022L483.883 183.984L477.919 206.13L471.956 183.984L449.806 178.022L471.956 172.059L477.919 149.913Z" fill="#181818"/>
<path d="M558.851 172.059L552.887 149.913L546.923 172.059L524.774 178.022L546.923 183.984L552.887 206.13L558.851 183.984L581 178.022L558.851 172.059Z" fill="#181818"/>
<path d="M28.1129 224.87L34.0765 247.016L56.2258 252.978L34.0765 258.941L28.1129 281.087L22.1493 258.941L0 252.978L22.1493 247.016L28.1129 224.87Z" fill="#181818"/>
<path d="M109.044 247.016L103.081 224.87L97.117 247.016L74.9677 252.978L97.117 258.941L103.081 281.087L109.044 258.941L131.194 252.978L109.044 247.016Z" fill="#181818"/>
<path d="M178.048 224.87L184.012 247.016L206.161 252.978L184.012 258.941L178.048 281.087L172.085 258.941L149.935 252.978L172.085 247.016L178.048 224.87Z" fill="#181818"/>
<path d="M258.98 247.016L253.016 224.87L247.052 247.016L224.903 252.978L247.052 258.941L253.016 281.087L258.98 258.941L281.129 252.978L258.98 247.016Z" fill="#181818"/>
<path d="M327.984 224.87L333.948 247.016L356.097 252.978L333.948 258.941L327.984 281.087L322.02 258.941L299.871 252.978L322.02 247.016L327.984 224.87Z" fill="#181818"/>
<path d="M408.915 247.016L402.952 224.87L396.988 247.016L374.839 252.978L396.988 258.941L402.952 281.087L408.915 258.941L431.065 252.978L408.915 247.016Z" fill="#181818"/>
<path d="M477.919 224.87L483.883 247.016L506.032 252.978L483.883 258.941L477.919 281.087L471.956 258.941L449.806 252.978L471.956 247.016L477.919 224.87Z" fill="#181818"/>
<path d="M558.851 247.016L552.887 224.87L546.923 247.016L524.774 252.978L546.923 258.941L552.887 281.087L558.851 258.941L581 252.978L558.851 247.016Z" fill="#181818"/>
<path d="M28.1129 299.826L34.0765 321.972L56.2258 327.935L34.0765 333.898L28.1129 356.043L22.1493 333.898L0 327.935L22.1493 321.972L28.1129 299.826Z" fill="#181818"/>
<path d="M109.044 321.972L103.081 299.826L97.117 321.972L74.9677 327.935L97.117 333.898L103.081 356.043L109.044 333.898L131.194 327.935L109.044 321.972Z" fill="#181818"/>
<path d="M178.048 299.826L184.012 321.972L206.161 327.935L184.012 333.898L178.048 356.043L172.085 333.898L149.935 327.935L172.085 321.972L178.048 299.826Z" fill="#181818"/>
<path d="M258.98 321.972L253.016 299.826L247.052 321.972L224.903 327.935L247.052 333.898L253.016 356.043L258.98 333.898L281.129 327.935L258.98 321.972Z" fill="#181818"/>
<path d="M327.984 299.826L333.948 321.972L356.097 327.935L333.948 333.898L327.984 356.043L322.02 333.898L299.871 327.935L322.02 321.972L327.984 299.826Z" fill="#181818"/>
<path d="M408.915 321.972L402.952 299.826L396.988 321.972L374.839 327.935L396.988 333.898L402.952 356.043L408.915 333.898L431.065 327.935L408.915 321.972Z" fill="#181818"/>
<path d="M477.919 299.826L483.883 321.972L506.032 327.935L483.883 333.898L477.919 356.043L471.956 333.898L449.806 327.935L471.956 321.972L477.919 299.826Z" fill="#181818"/>
<path d="M558.851 321.972L552.887 299.826L546.923 321.972L524.774 327.935L546.923 333.898L552.887 356.043L558.851 333.898L581 327.935L558.851 321.972Z" fill="#181818"/>
<path d="M28.1129 374.783L34.0765 396.929L56.2258 402.891L34.0765 408.854L28.1129 431L22.1493 408.854L0 402.891L22.1493 396.929L28.1129 374.783Z" fill="#181818"/>
<path d="M109.044 396.929L103.081 374.783L97.117 396.929L74.9677 402.891L97.117 408.854L103.081 431L109.044 408.854L131.194 402.891L109.044 396.929Z" fill="#181818"/>
<path d="M178.048 374.783L184.012 396.929L206.161 402.891L184.012 408.854L178.048 431L172.085 408.854L149.935 402.891L172.085 396.929L178.048 374.783Z" fill="#181818"/>
<path d="M258.98 396.929L253.016 374.783L247.052 396.929L224.903 402.891L247.052 408.854L253.016 431L258.98 408.854L281.129 402.891L258.98 396.929Z" fill="#181818"/>
<path d="M327.984 374.783L333.948 396.929L356.097 402.891L333.948 408.854L327.984 431L322.02 408.854L299.871 402.891L322.02 396.929L327.984 374.783Z" fill="#181818"/>
<path d="M408.915 396.929L402.952 374.783L396.988 396.929L374.839 402.891L396.988 408.854L402.952 431L408.915 408.854L431.065 402.891L408.915 396.929Z" fill="#181818"/>
<path d="M477.919 374.783L483.883 396.929L506.032 402.891L483.883 408.854L477.919 431L471.956 408.854L449.806 402.891L471.956 396.929L477.919 374.783Z" fill="#181818"/>
<path d="M558.851 396.929L552.887 374.783L546.923 396.929L524.774 402.891L546.923 408.854L552.887 431L558.851 408.854L581 402.891L558.851 396.929Z" fill="#181818"/>
</svg>
