<svg width="278" height="63" viewBox="0 0 278 63" fill="none" xmlns="http://www.w3.org/2000/svg">
<g clip-path="url(#clip0_113_28)">
<path d="M2.772 33.432C2.772 27.608 4.032 22.428 6.552 17.892C9.072 13.3 12.572 9.744 17.052 7.224C21.588 4.648 26.712 3.36 32.424 3.36C39.424 3.36 45.416 5.208 50.4 8.904C55.384 12.6 58.716 17.64 60.396 24.024H44.604C43.428 21.56 41.748 19.684 39.564 18.396C37.436 17.108 35 16.464 32.256 16.464C27.832 16.464 24.248 18.004 21.504 21.084C18.76 24.164 17.388 28.28 17.388 33.432C17.388 38.584 18.76 42.7 21.504 45.78C24.248 48.86 27.832 50.4 32.256 50.4C35 50.4 37.436 49.756 39.564 48.468C41.748 47.18 43.428 45.304 44.604 42.84H60.396C58.716 49.224 55.384 54.264 50.4 57.96C45.416 61.6 39.424 63.42 32.424 63.42C26.712 63.42 21.588 62.16 17.052 59.64C12.572 57.064 9.072 53.508 6.552 48.972C4.032 44.436 2.772 39.256 2.772 33.432ZM90.5284 63.672C85.9364 63.672 81.7924 62.692 78.0964 60.732C74.4564 58.772 71.5724 55.972 69.4444 52.332C67.3724 48.692 66.3364 44.436 66.3364 39.564C66.3364 34.748 67.4004 30.52 69.5284 26.88C71.6564 23.184 74.5684 20.356 78.2644 18.396C81.9604 16.436 86.1044 15.456 90.6964 15.456C95.2884 15.456 99.4324 16.436 103.128 18.396C106.824 20.356 109.736 23.184 111.864 26.88C113.992 30.52 115.056 34.748 115.056 39.564C115.056 44.38 113.964 48.636 111.78 52.332C109.652 55.972 106.712 58.772 102.96 60.732C99.2644 62.692 95.1204 63.672 90.5284 63.672ZM90.5284 51.24C93.2724 51.24 95.5964 50.232 97.5004 48.216C99.4604 46.2 100.44 43.316 100.44 39.564C100.44 35.812 99.4884 32.928 97.5844 30.912C95.7364 28.896 93.4404 27.888 90.6964 27.888C87.8964 27.888 85.5724 28.896 83.7244 30.912C81.8764 32.872 80.9524 35.756 80.9524 39.564C80.9524 43.316 81.8484 46.2 83.6404 48.216C85.4884 50.232 87.7844 51.24 90.5284 51.24ZM119.821 39.48C119.821 34.664 120.717 30.436 122.509 26.796C124.357 23.156 126.849 20.356 129.985 18.396C133.121 16.436 136.621 15.456 140.485 15.456C143.565 15.456 146.365 16.1 148.885 17.388C151.461 18.676 153.477 20.412 154.933 22.596V0.839999H169.297V63H154.933V56.28C153.589 58.52 151.657 60.312 149.137 61.656C146.673 63 143.789 63.672 140.485 63.672C136.621 63.672 133.121 62.692 129.985 60.732C126.849 58.716 124.357 55.888 122.509 52.248C120.717 48.552 119.821 44.296 119.821 39.48ZM154.933 39.564C154.933 35.98 153.925 33.152 151.909 31.08C149.949 29.008 147.541 27.972 144.685 27.972C141.829 27.972 139.393 29.008 137.377 31.08C135.417 33.096 134.437 35.896 134.437 39.48C134.437 43.064 135.417 45.92 137.377 48.048C139.393 50.12 141.829 51.156 144.685 51.156C147.541 51.156 149.949 50.12 151.909 48.048C153.925 45.976 154.933 43.148 154.933 39.564ZM223.872 38.808C223.872 40.152 223.788 41.552 223.62 43.008H191.112C191.336 45.92 192.26 48.16 193.884 49.728C195.564 51.24 197.608 51.996 200.016 51.996C203.6 51.996 206.092 50.484 207.492 47.46H222.78C221.996 50.54 220.568 53.312 218.496 55.776C216.48 58.24 213.932 60.172 210.852 61.572C207.772 62.972 204.328 63.672 200.52 63.672C195.928 63.672 191.84 62.692 188.256 60.732C184.672 58.772 181.872 55.972 179.856 52.332C177.84 48.692 176.832 44.436 176.832 39.564C176.832 34.692 177.812 30.436 179.772 26.796C181.788 23.156 184.588 20.356 188.172 18.396C191.756 16.436 195.872 15.456 200.52 15.456C205.056 15.456 209.088 16.408 212.616 18.312C216.144 20.216 218.888 22.932 220.848 26.46C222.864 29.988 223.872 34.104 223.872 38.808ZM209.172 35.028C209.172 32.564 208.332 30.604 206.652 29.148C204.972 27.692 202.872 26.964 200.352 26.964C197.944 26.964 195.9 27.664 194.22 29.064C192.596 30.464 191.588 32.452 191.196 35.028H209.172ZM228.594 39.48C228.594 34.664 229.49 30.436 231.282 26.796C233.13 23.156 235.622 20.356 238.758 18.396C241.894 16.436 245.394 15.456 249.258 15.456C252.338 15.456 255.138 16.1 257.658 17.388C260.234 18.676 262.25 20.412 263.706 22.596V0.839999H278.07V63H263.706V56.28C262.362 58.52 260.43 60.312 257.91 61.656C255.446 63 252.562 63.672 249.258 63.672C245.394 63.672 241.894 62.692 238.758 60.732C235.622 58.716 233.13 55.888 231.282 52.248C229.49 48.552 228.594 44.296 228.594 39.48ZM263.706 39.564C263.706 35.98 262.698 33.152 260.682 31.08C258.722 29.008 256.314 27.972 253.458 27.972C250.602 27.972 248.166 29.008 246.15 31.08C244.19 33.096 243.21 35.896 243.21 39.48C243.21 43.064 244.19 45.92 246.15 48.048C248.166 50.12 250.602 51.156 253.458 51.156C256.314 51.156 258.722 50.12 260.682 48.048C262.698 45.976 263.706 43.148 263.706 39.564Z" fill="url(#paint0_linear_113_28)"/>
</g>
<defs>
<linearGradient id="paint0_linear_113_28" x1="0" y1="-29" x2="124.675" y2="-29" gradientUnits="userSpaceOnUse">
<stop stop-color="#8B5CF6"/>
<stop offset="1" stop-color="#EC4899"/>
</linearGradient>
<clipPath id="clip0_113_28">
<rect width="278" height="63" fill="white"/>
</clipPath>
</defs>
</svg>
