<svg width="912" height="273" viewBox="0 0 912 273" fill="none" xmlns="http://www.w3.org/2000/svg">
<path d="M23 133.5L55 78.5H64.5L68 86L40.5 133.5L68 182L63.5 189H55L23 133.5Z" fill="white"/>
<path d="M227 86.5L234 82.5V73L178 40L121 73V196.5L177 228.5L234.5 195.5V187L226.5 183L177 211.5L136 187V82.5L178 58L227 86.5Z" fill="white"/>
<path d="M358 82.5L316 58V40.5L372.5 73.5V196L315.5 228.5L259.5 196V73.5L315.5 41V58L274.5 82.5V187L316.5 211.5L358 187V82.5Z" fill="white"/>
<path d="M412.5 73.5L397.5 65V223.5L405.5 228.5L511 167V101.5L405 40.5L397.5 45.5V54L496 111V159L412.5 207V73.5Z" fill="white"/>
<path d="M641.5 86L648.5 82V72.5L593 40.5L534.5 74L536 147.5L551 138.5V82L593 58L641.5 86Z" fill="white"/>
<path d="M551 167.5V176L536 167.5V159L592.5 126L600 130.5V138.5L551 167.5Z" fill="white"/>
<path d="M23 133.5L55 78.5H64.5L68 86L40.5 133.5L68 182L63.5 189H55L23 133.5Z" stroke="white"/>
<path d="M227 86.5L234 82.5V73L178 40L121 73V196.5L177 228.5L234.5 195.5V187L226.5 183L177 211.5L136 187V82.5L178 58L227 86.5Z" stroke="white"/>
<path d="M358 82.5L316 58V40.5L372.5 73.5V196L315.5 228.5L259.5 196V73.5L315.5 41V58L274.5 82.5V187L316.5 211.5L358 187V82.5Z" stroke="white"/>
<path d="M412.5 73.5L397.5 65V223.5L405.5 228.5L511 167V101.5L405 40.5L397.5 45.5V54L496 111V159L412.5 207V73.5Z" stroke="white"/>
<path d="M641.5 86L648.5 82V72.5L593 40.5L534.5 74L536 147.5L551 138.5V82L593 58L641.5 86Z" stroke="white"/>
<path d="M551 167.5V176L536 167.5V159L592.5 126L600 130.5V138.5L551 167.5Z" stroke="white"/>
<path d="M591 211L536 179V195.5L591 229L650 195.5V187.5L640.5 182.5L591 211Z" fill="white"/>
<path d="M673.5 224V65L689 74V207L772 158.5V111L673.5 53V44.5L681.5 41L787 102V167.5L681 229L673.5 224Z" fill="white"/>
<path d="M848.5 133.5L821.5 85.5L825 78.5H834.5L866.5 133.5L834.5 189H825L821.5 181L848.5 133.5Z" fill="white"/>
<path d="M285 94V89H313.5V94H285Z" fill="white"/>
<path d="M329 97.5H285V102.5H329V97.5Z" fill="white"/>
<path d="M305 110H285V105H305V110Z" fill="white"/>
<path d="M285 113.5V118.5H321.5V113.5H285Z" fill="white"/>
<path d="M336 127H285V122H336V127Z" fill="white"/>
<path d="M305 131H285V136H305V131Z" fill="white"/>
<path d="M341.5 145H285V140H341.5V145Z" fill="white"/>
<path d="M341.5 162.5H285V157.5H341.5V162.5Z" fill="white"/>
<path d="M341.5 166H285V171H341.5V166Z" fill="white"/>
<path d="M285 180V175H313.5V180H285Z" fill="white"/>
</svg>
