<svg width="430" height="294" viewBox="0 0 430 294" fill="none" xmlns="http://www.w3.org/2000/svg">
<path d="M416.527 224.093H145.727C138.418 224.093 132.44 218.114 132.44 210.805V13.2876C132.44 5.97884 138.418 0 145.727 0H416.527C423.836 0 429.815 5.97884 429.815 13.2876V210.805C429.818 218.111 423.836 224.093 416.527 224.093Z" fill="#F8016A"/>
<path d="M408.223 205.4H152.752C145.443 205.4 139.465 199.421 139.465 192.112V23.0317C139.465 15.7229 145.443 9.74405 152.752 9.74405H408.223C415.531 9.74405 421.51 15.7229 421.51 23.0317V192.112C421.51 199.421 415.531 205.4 408.223 205.4Z" fill="#E3E5FC"/>
<path d="M296.835 213.87H275.979C275.471 213.87 275.057 213.453 275.057 212.948C275.057 212.439 275.474 212.026 275.979 212.026H296.835C297.344 212.026 297.757 212.442 297.757 212.948C297.757 213.456 297.344 213.87 296.835 213.87Z" fill="#E3E5FC"/>
<path d="M148.307 7.52751C149.453 7.52751 150.382 6.59863 150.382 5.4528C150.382 4.30696 149.453 3.37808 148.307 3.37808C147.161 3.37808 146.233 4.30696 146.233 5.4528C146.233 6.59863 147.161 7.52751 148.307 7.52751Z" fill="#E3E5FC"/>
<path d="M157.239 7.52751C158.384 7.52751 159.313 6.59863 159.313 5.4528C159.313 4.30696 158.384 3.37808 157.239 3.37808C156.093 3.37808 155.164 4.30696 155.164 5.4528C155.164 6.59863 156.093 7.52751 157.239 7.52751Z" fill="#3E3E3E"/>
<path d="M166.253 7.52751C167.398 7.52751 168.327 6.59863 168.327 5.4528C168.327 4.30696 167.398 3.37808 166.253 3.37808C165.107 3.37808 164.178 4.30696 164.178 5.4528C164.178 6.59863 165.107 7.52751 166.253 7.52751Z" fill="#F8016A"/>
<path d="M217.216 120.585H166.646C165.289 120.585 164.178 119.473 164.178 118.117C164.178 116.76 165.289 115.649 166.646 115.649H217.216C218.573 115.649 219.684 116.76 219.684 118.117C219.684 119.473 218.573 120.585 217.216 120.585Z" fill="#3E3E3E"/>
<path d="M217.216 131.883H166.646C165.289 131.883 164.178 130.772 164.178 129.415C164.178 128.059 165.289 126.948 166.646 126.948H217.216C218.573 126.948 219.684 128.059 219.684 129.415C219.684 130.772 218.573 131.883 217.216 131.883Z" fill="#3E3E3E"/>
<path d="M217.216 143.179H166.646C165.289 143.179 164.178 142.068 164.178 140.711C164.178 139.354 165.289 138.243 166.646 138.243H217.216C218.573 138.243 219.684 139.354 219.684 140.711C219.684 142.071 218.573 143.179 217.216 143.179Z" fill="#3E3E3E"/>
<path d="M217.216 155.917H166.646C165.289 155.917 164.178 154.805 164.178 153.449C164.178 152.092 165.289 150.981 166.646 150.981H217.216C218.573 150.981 219.684 152.092 219.684 153.449C219.684 154.805 218.573 155.917 217.216 155.917Z" fill="#3E3E3E"/>
<path d="M217.216 167.212H166.646C165.289 167.212 164.178 166.101 164.178 164.745C164.178 163.388 165.289 162.277 166.646 162.277H217.216C218.573 162.277 219.684 163.388 219.684 164.745C219.684 166.104 218.573 167.212 217.216 167.212Z" fill="#3E3E3E"/>
<path d="M217.216 178.511H166.646C165.289 178.511 164.178 177.4 164.178 176.043C164.178 174.687 165.289 173.575 166.646 173.575H217.216C218.573 173.575 219.684 174.687 219.684 176.043C219.684 177.4 218.573 178.511 217.216 178.511Z" fill="#3E3E3E"/>
<path d="M292.89 120.585H242.32C240.963 120.585 239.852 119.473 239.852 118.117C239.852 116.76 240.963 115.649 242.32 115.649H292.89C294.246 115.649 295.358 116.76 295.358 118.117C295.358 119.473 294.246 120.585 292.89 120.585Z" fill="#3E3E3E"/>
<path d="M292.89 131.883H242.32C240.963 131.883 239.852 130.772 239.852 129.415C239.852 128.059 240.963 126.948 242.32 126.948H292.89C294.246 126.948 295.358 128.059 295.358 129.415C295.358 130.772 294.246 131.883 292.89 131.883Z" fill="#3E3E3E"/>
<path d="M292.89 143.179H242.32C240.963 143.179 239.852 142.068 239.852 140.711C239.852 139.354 240.963 138.243 242.32 138.243H292.89C294.246 138.243 295.358 139.354 295.358 140.711C295.358 142.071 294.246 143.179 292.89 143.179Z" fill="#3E3E3E"/>
<path d="M292.89 155.917H242.32C240.963 155.917 239.852 154.805 239.852 153.449C239.852 152.092 240.963 150.981 242.32 150.981H292.89C294.246 150.981 295.358 152.092 295.358 153.449C295.358 154.805 294.246 155.917 292.89 155.917Z" fill="#3E3E3E"/>
<path d="M292.89 167.212H242.32C240.963 167.212 239.852 166.101 239.852 164.745C239.852 163.388 240.963 162.277 242.32 162.277H292.89C294.246 162.277 295.358 163.388 295.358 164.745C295.358 166.104 294.246 167.212 292.89 167.212Z" fill="#3E3E3E"/>
<path d="M292.89 178.511H242.32C240.963 178.511 239.852 177.4 239.852 176.043C239.852 174.687 240.963 173.575 242.32 173.575H292.89C294.246 173.575 295.358 174.687 295.358 176.043C295.358 177.4 294.246 178.511 292.89 178.511Z" fill="#3E3E3E"/>
<path d="M360.723 71.4534C354.901 69.9964 353.444 52.5298 347.622 52.5298C334.83 53.6913 330.397 70.6407 323.195 83.349C324.138 88.5861 328.733 92.5966 334.233 92.5966H385.486C391.66 92.5966 396.711 87.5457 396.711 81.3719V44.624C394.932 44.7659 393.114 45.4043 391.294 46.7046C381.104 55.4409 373.824 74.3645 360.723 71.4534Z" fill="#3DB7E0"/>
<path d="M385.578 29.507H334.325C328.151 29.507 323.1 34.5579 323.1 40.7317V81.3719C323.1 82.0457 323.171 82.7048 323.287 83.3491C330.486 70.6378 334.922 53.6913 347.713 52.5298C353.535 52.5298 354.992 69.9994 360.815 71.4534C373.916 74.3645 381.195 55.4409 391.386 46.7047C393.206 45.4043 395.024 44.763 396.803 44.624V40.7317C396.803 34.5579 391.752 29.507 385.578 29.507Z" fill="#3E3E3E"/>
<path d="M367.231 55.6241C370.799 55.6241 373.691 52.7317 373.691 49.1636C373.691 45.5955 370.799 42.703 367.231 42.703C363.663 42.703 360.77 45.5955 360.77 49.1636C360.77 52.7317 363.663 55.6241 367.231 55.6241Z" fill="#F8016A"/>
<path d="M177.468 93.8881H282.067C289.376 93.8881 295.355 87.9093 295.355 80.6005V42.8006C295.355 35.4918 289.376 29.5129 282.067 29.5129H177.468C170.16 29.5129 164.181 35.4918 164.181 42.8006V80.6005C164.178 87.9064 170.16 93.8881 177.468 93.8881Z" fill="#3E3E3E"/>
<path d="M336.391 142.23H383.421C390.729 142.23 396.708 136.251 396.708 128.943C396.708 121.634 390.729 115.655 383.421 115.655H336.391C329.082 115.655 323.103 121.634 323.103 128.943C323.103 136.248 329.082 142.23 336.391 142.23Z" fill="#3E3E3E"/>
<path d="M336.391 175.567H383.421C390.729 175.567 396.708 169.589 396.708 162.28C396.708 154.971 390.729 148.992 383.421 148.992H336.391C329.082 148.992 323.103 154.971 323.103 162.28C323.103 169.589 329.082 175.567 336.391 175.567Z" fill="#3E3E3E"/>
<path d="M286.409 291.734C340.428 291.734 384.219 288.747 384.219 285.063C384.219 281.379 340.428 278.393 286.409 278.393C232.39 278.393 188.599 281.379 188.599 285.063C188.599 288.747 232.39 291.734 286.409 291.734Z" fill="#E3E5FC"/>
<path d="M172.462 266.763H122.628C119.835 266.763 117.553 264.479 117.553 261.689V259.777C117.553 256.984 119.838 254.702 122.628 254.702H172.462C175.255 254.702 177.536 256.987 177.536 259.777V261.689C177.536 264.479 175.252 266.763 172.462 266.763Z" fill="#F8016A"/>
<path d="M172.462 279.876H122.628C119.835 279.876 117.553 277.592 117.553 274.802V272.89C117.553 270.097 119.838 267.815 122.628 267.815H172.462C175.255 267.815 177.536 270.1 177.536 272.89V274.802C177.536 277.595 175.252 279.876 172.462 279.876Z" fill="#F8016A"/>
<path d="M172.462 293.123H122.628C119.835 293.123 117.553 290.838 117.553 288.048V286.136C117.553 283.343 119.838 281.062 122.628 281.062H172.462C175.255 281.062 177.536 283.346 177.536 286.136V288.048C177.536 290.838 175.252 293.123 172.462 293.123Z" fill="#F8016A"/>
<path d="M122.444 262.02C123.208 262.02 123.827 261.4 123.827 260.637C123.827 259.873 123.208 259.253 122.444 259.253C121.68 259.253 121.061 259.873 121.061 260.637C121.061 261.4 121.68 262.02 122.444 262.02Z" fill="#3E3E3E"/>
<path d="M172.276 262.02C173.04 262.02 173.659 261.4 173.659 260.637C173.659 259.873 173.04 259.253 172.276 259.253C171.512 259.253 170.893 259.873 170.893 260.637C170.893 261.4 171.512 262.02 172.276 262.02Z" fill="#3E3E3E"/>
<path d="M122.722 274.663C123.486 274.663 124.105 274.044 124.105 273.28C124.105 272.516 123.486 271.897 122.722 271.897C121.958 271.897 121.339 272.516 121.339 273.28C121.339 274.044 121.958 274.663 122.722 274.663Z" fill="#3E3E3E"/>
<path d="M172.554 274.663C173.318 274.663 173.937 274.044 173.937 273.28C173.937 272.516 173.318 271.897 172.554 271.897C171.79 271.897 171.17 272.516 171.17 273.28C171.17 274.044 171.79 274.663 172.554 274.663Z" fill="#3E3E3E"/>
<path d="M122.722 288.4C123.486 288.4 124.105 287.781 124.105 287.017C124.105 286.253 123.486 285.634 122.722 285.634C121.958 285.634 121.339 286.253 121.339 287.017C121.339 287.781 121.958 288.4 122.722 288.4Z" fill="#3E3E3E"/>
<path d="M172.554 288.4C173.318 288.4 173.937 287.781 173.937 287.017C173.937 286.253 173.318 285.634 172.554 285.634C171.79 285.634 171.17 286.253 171.17 287.017C171.17 287.781 171.79 288.4 172.554 288.4Z" fill="#3E3E3E"/>
<path d="M208.143 44.0152C208.314 43.897 208.483 43.7788 208.654 43.6635C214.033 40.0077 220.47 36.9783 226.851 38.2285C238.099 40.4303 243.268 52.8579 250.444 60.3469C255.592 65.7199 263.563 69.7452 271.277 68.9472C277.74 68.2793 278.875 61.2809 277.327 56.0113C276.753 54.0666 275.867 52.2047 274.259 50.9102C272.778 49.7163 269.122 48.0701 267.198 49.1163C270.514 47.3164 274.826 48.2119 277.785 50.5526C287.789 58.4702 285.265 75.4049 274.543 81.3571C266.238 85.9646 256.098 81.9098 249.548 76.0757C242.148 69.4822 239.852 59.2534 232.963 52.2579C231.118 50.3871 229.047 48.7439 226.254 48.9774C220.724 49.4414 219.817 55.302 216.105 58.2249C215.147 58.9786 213.885 59.4426 212.7 59.1618C211.828 58.9549 211.098 58.3816 210.33 57.9176C206.84 55.7985 196.903 56.1709 201.948 49.5921C203.651 47.3756 205.849 45.6082 208.143 44.0152Z" fill="#FDC510"/>
<path d="M148.411 105.609C145.813 108.503 142.453 111.967 140.939 115.67C140.818 115.968 140.715 116.32 140.863 116.607C142.813 120.36 171.892 93.1256 174.98 90.2973C181.479 84.3421 187.532 79.773 193.165 72.94C194.246 71.6278 195.355 70.2122 195.627 68.498C195.786 67.4341 190.821 69.6447 189.858 70.1353C182.484 73.8828 173.827 80.4586 167.804 86.0296C161.081 92.2508 154.555 98.7675 148.411 105.609Z" fill="#02C4F9"/>
<path d="M205.323 57.3767C205.155 55.9847 204.818 54.6282 204.286 53.3514C203.024 50.3162 200.725 47.4229 197.344 46.7638C202.829 50.2187 197.574 56.9512 193.626 59.679C192.651 60.3529 191.587 60.9321 190.419 61.405C187.461 62.6019 183.536 63.527 182.782 67.1385C192.467 67.3957 199.687 63.4147 205.323 57.3767Z" fill="#F44E4E"/>
<path d="M182.782 67.1356C182.776 67.1681 182.765 67.1976 182.759 67.2301C181.659 73.0169 185.395 78.8361 191.773 77.7751C200.654 76.2944 206.384 66.0982 205.323 57.3738C199.687 63.4147 192.467 67.3956 182.782 67.1356Z" fill="#F8016A"/>
<path d="M32.144 272.969C30.3914 271.019 28.6714 269.059 28.1394 266.509C27.8645 265.188 28.3226 263.379 29.6674 263.302C30.3442 263.264 30.9382 263.71 31.5381 264.026C33.8463 265.25 33.8611 262.498 33.2257 261.041C32.1085 258.473 30.4003 255.911 30.7786 253.136C30.8022 252.961 30.8407 252.778 30.9618 252.648C31.1421 252.456 31.4436 252.456 31.7036 252.488C33.4799 252.722 35.3093 255.03 37.1387 254.276C41.6073 252.438 37.7416 242.174 37.4372 239.006C37.3781 238.4 37.3278 237.753 37.6204 237.221C38.1879 236.186 39.7395 236.165 40.7561 236.76C42.3166 237.673 43.2032 239.446 44.9056 240.167C46.2473 240.735 47.7753 240.084 48.7624 239.127C51.7326 236.248 52.4242 231.546 54.7649 228.207C56.68 225.473 62.0057 221.314 64.9877 225.015C66.3531 226.708 65.5374 229.179 64.9789 231.28C64.4587 233.228 64.0331 235.518 64.2311 237.531C64.3789 239.006 65.0084 240.501 66.2172 241.358C68.5667 243.022 72.9822 243.075 70.5528 247.036C69.808 248.247 68.6525 249.146 67.7629 250.257C66.8733 251.368 66.2526 252.902 66.8289 254.202C67.8781 256.576 74.915 257.451 72.2197 261.177C71.5458 262.111 70.473 262.655 69.477 263.231C64.6597 266.015 68.9835 268.459 68.0525 272.287C67.7185 273.664 66.6753 274.784 65.4695 275.523C63.5307 276.711 61.1782 277.163 59.1035 278.068C54.889 279.909 51.1208 282.649 47.598 285.574C45.0149 287.72 40.963 292.511 37.1535 290.197C34.8039 288.769 36.2698 284.762 36.4855 282.675C36.9082 278.617 34.7271 275.842 32.144 272.969Z" fill="#FDC510"/>
<path d="M38.8321 293.179C38.7671 293.179 38.7021 293.167 38.6371 293.143C38.3504 293.037 38.2056 292.718 38.3149 292.431L56.0032 245.398C56.1096 245.112 56.4317 244.967 56.7155 245.076C57.0021 245.183 57.1469 245.502 57.0376 245.788L39.3493 292.821C39.2666 293.04 39.0538 293.179 38.8321 293.179Z" fill="#3E3E3E"/>
<path d="M51.3573 260.663C51.177 260.663 51.0026 260.577 50.8962 260.418C50.7278 260.164 50.7957 259.821 51.0499 259.649L59.6561 253.913C59.9103 253.741 60.2561 253.812 60.4245 254.067C60.593 254.321 60.525 254.664 60.2709 254.835L51.6646 260.571C51.5671 260.631 51.4607 260.663 51.3573 260.663Z" fill="#3E3E3E"/>
<path d="M45.1184 277.781C44.9381 277.781 44.7637 277.695 44.6573 277.536C44.4889 277.282 44.5568 276.939 44.811 276.767L53.4172 271.031C53.6714 270.859 54.0142 270.93 54.1856 271.184C54.357 271.439 54.2861 271.781 54.0319 271.953L45.4257 277.689C45.3312 277.751 45.2248 277.781 45.1184 277.781Z" fill="#3E3E3E"/>
<path d="M47.1783 269.37C46.995 269.37 46.8177 269.281 46.7113 269.116L41.2349 260.569C41.0694 260.311 41.1433 259.969 41.4034 259.803C41.6605 259.638 42.0033 259.714 42.1688 259.972L47.6452 268.519C47.8107 268.776 47.7369 269.119 47.4768 269.284C47.3822 269.34 47.2817 269.37 47.1783 269.37Z" fill="#3E3E3E"/>
<path d="M27.566 290.841C20.139 291.683 12.9544 290.853 9.98714 283.178C8.92023 280.414 7.35681 279.327 4.5787 278.543C3.22807 278.162 1.81242 277.725 0.851907 276.699C-0.105653 275.674 -0.374597 273.865 0.665714 272.922C1.49619 272.169 2.75816 272.242 3.87236 272.358C5.7195 272.553 7.5696 272.745 9.41675 272.94C9.67978 272.967 9.95759 272.993 10.194 272.878C10.9802 272.497 10.4866 271.303 9.90439 270.652C7.72919 268.22 5.48898 265.844 3.18965 263.533C2.33849 262.679 1.4489 261.78 1.10016 260.625C0.751422 259.469 1.16223 257.985 2.29416 257.566C3.86349 256.981 5.70177 258.683 7.18244 257.903C8.24344 257.344 8.37348 255.863 8.09567 254.699C7.81786 253.535 7.2711 252.37 7.48094 251.191C7.68191 250.065 8.6306 249.113 9.75662 248.912C10.8797 248.708 12.1032 249.27 12.6825 250.254C13.3209 251.336 13.2795 252.881 14.3287 253.573C15.2094 254.152 16.4123 253.786 17.2871 253.201C18.1648 252.615 18.9273 251.817 19.9263 251.478C21.6197 250.898 23.6856 252.024 24.12 253.759C24.5515 255.488 23.5555 257.48 24.451 259.023C25.2845 260.459 27.3001 260.654 28.9285 260.326C30.5569 259.998 32.1943 259.321 33.8257 259.643C34.3872 259.753 34.9753 260.031 35.2029 260.554C35.4511 261.127 35.194 261.789 34.8867 262.333C33.9557 263.967 32.543 265.291 31.6564 266.949C30.7697 268.607 30.5599 270.892 31.9224 272.186C32.6376 272.869 33.6365 273.135 34.5409 273.54C35.4423 273.945 36.3555 274.625 36.4826 275.606C36.6983 277.264 34.7152 278.221 33.6927 279.542C32.3627 281.257 32.6908 283.665 32.6405 285.834C32.4957 292.008 26.4578 291.875 21.868 290.746" fill="#978CFF"/>
<path d="M28.6034 292.094C28.3788 292.094 28.169 291.958 28.0862 291.736L17.8397 264.499C17.7304 264.213 17.8752 263.893 18.1619 263.787C18.4456 263.681 18.7677 263.825 18.8741 264.109L29.1177 291.343C29.227 291.63 29.0822 291.949 28.7955 292.056C28.7335 292.082 28.6655 292.094 28.6034 292.094Z" fill="#3E3E3E"/>
<path d="M21.3479 273.262C21.2415 273.262 21.1351 273.233 21.0405 273.17L16.0576 269.849C15.8035 269.68 15.7355 269.334 15.904 269.08C16.0724 268.826 16.4152 268.755 16.6724 268.926L21.6552 272.248C21.9094 272.417 21.9774 272.763 21.8089 273.017C21.7025 273.176 21.5281 273.262 21.3479 273.262Z" fill="#3E3E3E"/>
<path d="M24.9594 283.178C24.853 283.178 24.7466 283.148 24.652 283.086L19.6692 279.764C19.415 279.596 19.347 279.25 19.5155 278.996C19.684 278.741 20.0268 278.671 20.2839 278.842L25.2668 282.164C25.5209 282.332 25.5889 282.678 25.4204 282.932C25.3141 283.089 25.1397 283.178 24.9594 283.178Z" fill="#3E3E3E"/>
<path d="M23.7683 278.307C23.6649 278.307 23.5615 278.277 23.4698 278.218C23.2127 278.053 23.1359 277.71 23.3014 277.453L26.4726 272.503C26.6351 272.245 26.9779 272.169 27.238 272.334C27.4951 272.5 27.572 272.842 27.4065 273.1L24.2353 278.05C24.1289 278.215 23.9516 278.307 23.7683 278.307Z" fill="#3E3E3E"/>
<path d="M96.6434 266.01L98.526 283.822L92.6358 285.063L91.7758 266.361C91.7758 266.361 94.8937 265.223 96.6434 266.01Z" fill="#EAC2AB"/>
<path d="M121.026 293.267C121.026 293.267 116.613 294.246 108.397 293.941C100.181 293.637 91.0546 292.925 89.5385 291.533C88.0194 290.138 88.1051 279.74 90.8212 280.045C93.5372 280.346 94.1549 284.395 99.3358 281.422C103.775 278.874 106.42 284.907 113.395 287.215C120.367 289.523 123.192 290.448 121.026 293.267Z" fill="#FDC510"/>
<path d="M112.186 270.933C111.911 270.292 111.19 269.813 110.563 269.314C104.839 264.75 106.237 257.79 107.153 251.708C109.325 237.28 106.999 222.736 106.13 208.305C105.285 194.219 106.695 180.083 109.913 166.352C111.084 161.364 112.697 153.65 104.981 155.11C101.325 155.801 97.7162 155.666 94.0721 155.027C92.1541 154.69 94.1106 154.067 92.1541 154.69C85.4896 156.818 82.9981 169.414 84.3665 173.803C87.0914 182.542 87.978 190.93 88.4214 200.183C89.0479 213.305 91.232 226.442 89.6745 239.464C88.912 245.845 88.0253 252.208 87.1742 258.577C86.6776 262.292 83.5715 270.431 85.6551 273.794C88.5159 278.41 101.263 274.497 105.521 274.394C108.722 274.311 113.12 273.111 112.186 270.933Z" fill="#F8016A"/>
<path d="M133.081 227.542L129.156 245.262L123.097 244.559L128.29 226.312C128.29 226.315 131.653 226.221 133.081 227.542Z" fill="#EAC2AB"/>
<path d="M152.743 253.863C152.743 253.863 148.281 254.894 139.955 254.664C131.627 254.433 122.373 253.798 120.822 252.4C119.27 251.002 119.258 240.466 122.013 240.746C124.767 241.027 125.432 245.123 130.651 242.062C135.123 239.44 137.863 245.525 144.953 247.798C152.043 250.071 154.913 250.987 152.743 253.863Z" fill="#FDC510"/>
<path d="M155.072 171.607C151.162 165.696 137.798 165.761 125.536 167.271L110.318 166.373L108.246 160.604C108.246 160.604 84.0355 167.999 84.0089 168.007C84.7743 167.883 84.6532 177.639 85.0965 178.487C88.5632 185.128 98.4196 190.619 106.325 190.723C115.718 190.847 124.578 188.14 133.356 185.241C149.294 179.98 126.942 213.202 121.871 223.723C116.799 234.245 122.373 233.689 135.028 233.136C147.687 232.584 141.708 233.414 143.865 224.625C146.026 215.832 162.807 183.302 155.072 171.607Z" fill="#5A54FF"/>
<path d="M107.23 92.5434C107.23 92.5434 105.412 105.861 105.409 105.861C102.194 106.806 98.8245 108.612 95.4375 108.606C95.5912 106.135 98.0088 103.31 99.12 100.978C100.468 98.1498 101.416 95.221 101.269 92.0498C100.878 83.7628 107.23 92.5434 107.23 92.5434Z" fill="#D4A79A"/>
<path d="M123.269 64.7121C123.822 64.8953 125.482 71.1727 122.53 75.2334C119.578 79.2942 121.292 78.7415 118.404 81.5078C115.517 84.2771 113.486 84.877 113.486 84.877L110.164 86.1212L110.534 79.2912L113.832 68.4005L124.235 64.7121" fill="#343434"/>
<path d="M115.431 66.175C115.425 66.1898 120.659 69.7393 117.884 78.2302C114.917 87.3182 110.634 94.9284 107.889 94.1393C100.293 91.9611 98.0353 86.2838 95.7419 81.3807C92.9313 75.3694 100.601 61.8955 100.601 61.8955L107.032 59.082L115.431 66.175Z" fill="#EAC2AB"/>
<path d="M127.265 64.1181C128.119 61.999 127.164 58.0151 125.692 56.5433C125.125 55.9758 124.383 55.5828 123.609 55.5946C123.026 55.6035 122.435 55.8369 121.871 55.6951C120.174 55.2665 120.177 53.8213 118.623 53.1741C117.464 52.6924 116.232 53.6765 114.994 53.8627C114.06 54.0016 113.132 53.6765 112.224 53.4076C109.674 52.648 107.372 51.2058 104.735 50.6649C102.513 50.2098 100.151 50.2689 98.0294 51.191C95.8158 52.1545 94.1253 54.1198 93.1145 56.4694C92.5116 57.8732 92.225 59.4692 92.4909 60.9794C92.2722 59.7381 89.9759 60.8641 89.5828 61.3133C88.0371 63.0777 84.1419 68.2409 84.7004 70.487C85.1437 72.2662 83.7695 73.8769 84.1596 75.6797C84.6236 77.8253 90.236 79.0637 91.2408 81.0143C92.3934 83.2515 94.944 84.5519 97.264 84.15C96.7231 82.1669 96.1882 80.1394 96.2296 78.0588C96.2709 75.9782 94.3026 66.4085 104.653 65.2293C108.767 64.7594 113.368 68.5394 117.411 69.0359C119.332 69.2723 121.292 69.0566 123.159 68.4714C124.602 68.0192 126.133 66.0509 127.025 64.5909C127.12 64.4402 127.2 64.2836 127.265 64.1181Z" fill="#343434"/>
<path d="M171.138 93.1433C170.887 93.0369 170.624 93.2586 170.44 93.4625C168.774 95.3067 167.104 97.1479 165.437 98.9921C165.112 99.3527 164.772 99.7221 164.335 99.932C163.897 100.142 163.33 100.151 162.966 99.8285C162.529 99.4414 162.544 98.7646 162.594 98.1794C162.668 97.2957 164.134 95.5431 162.733 95.156C160.744 96.1224 158.84 100.225 158.252 102.287C157.469 104.48 159.242 106.038 158.045 107.929C155.823 111.443 153.66 114.984 151.26 118.38C150.001 120.159 148.706 121.912 147.406 123.655C146.818 124.444 144.365 128.786 143.508 128.874C140.659 132.722 137.904 136.718 134.836 140.398C133.666 141.802 124.723 133.707 124.723 133.707C116.882 127.645 115.555 122.863 115.555 122.863L108.696 124.625C108.696 124.625 111.131 130.831 115.91 134.921C121.123 139.381 127.788 146.424 131.441 149.169C135.096 151.915 135.351 150.582 136.731 149.258C139.636 146.459 141.77 142.177 144.007 138.852C147.867 133.113 151.685 127.341 155.377 121.489C157.165 118.655 159.053 115.628 160.688 112.608C162.254 109.714 163.56 108.121 166.43 106.44C168.845 105.024 170.195 102.808 170.627 100.015C170.934 98.0228 170.763 95.9687 171.312 94.0122C171.401 93.7019 171.436 93.2675 171.138 93.1433Z" fill="#EAC2AB"/>
<path d="M109.999 131.712C109.16 123.679 113.04 110.894 108.359 104.374C107.88 103.706 107.363 103.038 106.665 102.601C97.858 97.0741 91.7639 105.663 88.9504 113.22C86.5092 119.772 86.8106 125.801 86.6303 132.637C86.3259 144.157 83.6454 155.364 80.223 166.314C79.0024 170.221 78.6773 174.769 82.1322 175.363C86.7988 176.164 87.8036 170.416 92.2545 168.932C96.3212 167.576 99.6076 168.409 104.053 168.652C106.257 168.773 113.457 167.322 113.016 163.223C111.976 153.505 110.413 145.126 110.362 138.359C110.348 136.163 110.232 133.937 109.999 131.712Z" fill="#D7384E"/>
<path d="M117.21 121.799C117.21 121.799 107.679 102.24 101.6 108.281C95.5232 114.322 109.683 134.047 109.683 134.047L119.51 123.983L117.21 121.799Z" fill="#F44E4E"/>
<path d="M116.734 65.2973C119.007 63.9969 119.666 61.0592 119.897 58.4496C120.148 55.6153 120.101 51.7851 117.713 49.7872C116.791 49.0158 115.662 48.5371 114.509 48.1913C108.861 46.4919 102.031 46.9648 96.5399 49.0483C90.9394 51.1733 86.787 56.0232 84.8009 61.5912C83.802 64.39 83.3084 67.372 83.3291 70.3422C83.3498 73.4809 84.7477 76.7467 82.3125 79.3415C83.1873 79.3445 84.0621 79.2351 84.9103 79.0164C81.81 79.8144 76.8153 79.9858 76.6883 84.4249C76.638 86.1922 77.7877 87.732 78.7571 89.2127C79.7264 90.6933 80.5835 92.5346 79.9097 94.1719C79.0615 96.2377 76.1149 97.0505 75.7337 99.2552C75.2815 101.874 77.7552 103.074 78.7512 105.113C80.0072 107.684 78.8044 110.675 78.5147 113.341C78.2576 115.705 80.4387 116.793 81.8632 118.205C85.992 122.296 85.9358 126.948 81.4229 131.466C81.3312 131.558 81.3667 131.735 81.4317 131.848C81.4997 131.966 81.6475 132.016 81.7805 132.052C87.6174 133.577 95.1952 127.941 96.5399 122.316C97.1458 119.784 95.6001 117.413 96.2769 114.981C96.8177 113.036 98.7978 111.937 100.506 110.867C104.472 108.385 103.686 102.06 103.181 97.4081C102.74 93.3503 103.793 92.5759 101.481 89.2127C100.279 87.463 99.3357 85.5479 98.5378 83.5796C97.4768 80.9611 96.2414 82.7137 96.333 79.8912C96.4335 76.7939 97.9674 73.9213 100.477 72.1066C101.777 71.1668 103.314 70.5077 104.895 70.224C106.571 69.9226 108.279 69.6388 109.582 68.4596C110.8 67.3572 112.481 64.8599 114.367 65.0284C116.72 65.2382 119.418 64.6501 120.638 62.6315" fill="#313131"/>
</svg>
