<svg width="21" height="16" viewBox="0 0 21 16" fill="none" xmlns="http://www.w3.org/2000/svg">
<path d="M10.8844 0.685708C11.397 0.269437 12.228 0.269437 12.7406 0.685709L20.6156 7.08129C20.8617 7.28119 21 7.55232 21 7.83502C21 8.11772 20.8617 8.38885 20.6156 8.58875L12.7406 14.9843C12.228 15.4006 11.397 15.4006 10.8844 14.9843C10.3719 14.5681 10.3719 13.8931 10.8844 13.4769L16.5188 8.90095L1.3125 8.90095C0.587626 8.90095 0 8.42372 0 7.83502C0 7.24632 0.587626 6.76909 1.3125 6.76909L16.5188 6.76909L10.8844 2.19316C10.3719 1.77689 10.3719 1.10198 10.8844 0.685708Z" fill="#EC0665"/>
</svg>
