<svg width="32" height="25" viewBox="0 0 32 25" fill="none" xmlns="http://www.w3.org/2000/svg">
<path fill-rule="evenodd" clip-rule="evenodd" d="M31.25 2.96224C30.0977 3.46354 28.866 3.80208 27.5681 3.95833C28.8925 3.17708 29.9123 1.9401 30.3891 0.46875C29.1508 1.19141 27.78 1.71875 26.3165 1.9987C25.1444 0.768229 23.4756 0 21.6346 0C18.0918 0 15.2244 2.82552 15.2244 6.30859C15.2244 6.80339 15.2773 7.28516 15.3899 7.7474C10.0591 7.48698 5.33084 4.97396 2.17207 1.15234C1.62243 2.08333 1.30457 3.17057 1.30457 4.32292C1.30457 6.51042 2.44358 8.44401 4.16534 9.57682C3.1058 9.55078 2.11247 9.26432 1.25159 8.78906C1.25159 8.8151 1.25159 8.84115 1.25159 8.86719C1.25159 11.9271 3.46339 14.4727 6.39701 15.0521C5.86062 15.1953 5.29111 15.2734 4.70836 15.2734C4.29779 15.2734 3.89383 15.2344 3.50313 15.1562C4.31765 17.6628 6.68839 19.4857 9.49619 19.5378C7.30425 21.2305 4.53618 22.2396 1.52972 22.2396C1.01319 22.2396 0.503285 22.207 0 22.1484C2.82766 23.9583 6.19835 25 9.81405 25C21.6214 25 28.0714 15.3841 28.0714 7.04427C28.0714 6.77083 28.0647 6.4974 28.0515 6.23047C29.3031 5.33854 30.3891 4.23177 31.25 2.96224Z" fill="#20B1D1"/>
</svg>
