<svg width="26" height="25" viewBox="0 0 26 25" fill="none" xmlns="http://www.w3.org/2000/svg">
<path fill-rule="evenodd" clip-rule="evenodd" d="M23.5007 0H2.63597C1.49635 0 0.5 0.820526 0.5 1.94712V22.8575C0.5 23.9906 1.49635 25 2.63597 25H23.4942C24.6404 25 25.5 23.9841 25.5 22.8575V1.94712C25.5065 0.820526 24.6404 0 23.5007 0ZM8.2494 20.8388H4.66775V9.70305H8.2494V20.8388ZM6.5823 8.0099H6.55626C5.41013 8.0099 4.66775 7.15681 4.66775 6.08883C4.66775 5.0013 5.42966 4.16775 6.60184 4.16775C7.77402 4.16775 8.49035 4.99479 8.5164 6.08883C8.5164 7.15681 7.77402 8.0099 6.5823 8.0099ZM21.3387 20.8388H17.7571V14.7499C17.7571 13.2912 17.2361 12.2949 15.9402 12.2949C14.9504 12.2949 14.3643 12.9656 14.1038 13.6168C14.0061 13.8513 13.9801 14.1704 13.9801 14.496V20.8388H10.3984V9.70305H13.9801V11.2529C14.501 10.5105 15.315 9.44256 17.2101 9.44256C19.5609 9.44256 21.3387 10.9924 21.3387 14.3332V20.8388Z" fill="#0050FF"/>
</svg>
