<svg width="26" height="25" viewBox="0 0 26 25" fill="none" xmlns="http://www.w3.org/2000/svg">
<circle cx="12.4998" cy="12.8787" r="5.30303" fill="#A418E6"/>
<path fill-rule="evenodd" clip-rule="evenodd" d="M7.7686 7.33033C9.14224 5.95669 10.9685 5.19208 12.9111 5.19208C14.8537 5.19208 16.68 5.96072 18.0537 7.33435C18.9252 8.20591 19.5479 9.25325 19.8869 10.4221H25.3462V3.08442C25.3462 1.36299 24.0157 0.0324707 22.2943 0.0324707H3.59295C1.87152 0.0324707 0.411133 1.36299 0.411133 3.08442V10.4221H5.93529C6.27438 9.25325 6.89704 8.20189 7.7686 7.33033ZM23.2683 5.43507C23.2683 5.89409 22.8962 6.26624 22.4371 6.26624H19.9436C19.4846 6.26624 19.1124 5.89416 19.1124 5.43507V2.94156C19.1124 2.48254 19.4845 2.11039 19.9436 2.11039H22.4371C22.8961 2.11039 23.2683 2.48247 23.2683 2.94156V5.43507Z" fill="#A418E6"/>
<path fill-rule="evenodd" clip-rule="evenodd" d="M18.0537 17.6155C16.68 18.9892 14.8537 19.7375 12.9111 19.7375C10.9685 19.7375 9.14224 18.9932 7.7686 17.6196C6.3975 16.2485 5.64139 14.3831 5.63854 12.5H0.411133V21.7857C0.411133 23.5071 1.87152 24.9675 3.59295 24.9675H22.2943C24.0157 24.9675 25.3462 23.5071 25.3462 21.7857V12.5H20.1837C20.1809 14.3831 19.4248 16.2444 18.0537 17.6155Z" fill="#A418E6"/>
</svg>
