<svg width="23" height="22" viewBox="0 0 23 22" fill="none" xmlns="http://www.w3.org/2000/svg">
<ellipse cx="11.0008" cy="11.6333" rx="4.66708" ry="4.42921" fill="white"/>
<path fill-rule="evenodd" clip-rule="evenodd" d="M6.83697 6.99907C8.04587 5.85178 9.65316 5.21316 11.3628 5.21316C13.0724 5.21316 14.6797 5.85514 15.8886 7.00243C16.6557 7.73038 17.2037 8.60514 17.502 9.58137H22.3066V3.45279C22.3066 2.01501 21.1357 0.903732 19.6207 0.903732H3.16207C1.64707 0.903732 0.361816 2.01501 0.361816 3.45279V9.58137H5.22351C5.52193 8.60514 6.06993 7.72701 6.83697 6.99907ZM20.4779 5.4161C20.4779 5.79949 20.1504 6.11032 19.7464 6.11032H17.5519C17.1479 6.11032 16.8204 5.79955 16.8204 5.4161V3.33347C16.8204 2.95008 17.1479 2.63926 17.5519 2.63926H19.7464C20.1504 2.63926 20.4779 2.95003 20.4779 3.33347V5.4161Z" fill="white"/>
<path fill-rule="evenodd" clip-rule="evenodd" d="M15.8886 15.5895C14.6797 16.7368 13.0724 17.3618 11.3628 17.3618C9.65316 17.3618 8.04587 16.7402 6.83697 15.5929C5.63029 14.4477 4.96486 12.8897 4.96234 11.3169H0.361816V19.0725C0.361816 20.5103 1.64707 21.7301 3.16207 21.7301H19.6207C21.1357 21.7301 22.3066 20.5103 22.3066 19.0725V11.3169H17.7633C17.7608 12.8897 17.0954 14.4443 15.8886 15.5895Z" fill="white"/>
</svg>
