<svg width="23" height="22" viewBox="0 0 23 22" fill="none" xmlns="http://www.w3.org/2000/svg">
<path fill-rule="evenodd" clip-rule="evenodd" d="M20.2425 0.876617H1.87982C0.876868 0.876617 0 1.56194 0 2.5029V19.9677C0 20.9141 0.876868 21.7572 1.87982 21.7572H20.2367C21.2454 21.7572 22.0019 20.9087 22.0019 19.9677V2.5029C22.0077 1.56194 21.2454 0.876617 20.2425 0.876617ZM6.82008 18.2816H3.66794V8.98082H6.82008V18.2816ZM5.35291 7.56667H5.32998C4.3213 7.56667 3.66794 6.85415 3.66794 5.96214C3.66794 5.05382 4.33849 4.35762 5.3701 4.35762C6.40171 4.35762 7.03214 5.04838 7.05506 5.96214C7.05506 6.85415 6.40171 7.56667 5.35291 7.56667ZM18.3397 18.2816H15.1876V13.1961C15.1876 11.9777 14.7291 11.1456 13.5886 11.1456C12.7174 11.1456 12.2016 11.7058 11.9724 12.2497C11.8864 12.4455 11.8635 12.712 11.8635 12.984V18.2816H8.71137V8.98082H11.8635V10.2753C12.322 9.65527 13.0384 8.76326 14.7062 8.76326C16.7751 8.76326 18.3397 10.0578 18.3397 12.848V18.2816Z" fill="white"/>
</svg>
