<svg width="28" height="22" viewBox="0 0 28 22" fill="none" xmlns="http://www.w3.org/2000/svg">
<path fill-rule="evenodd" clip-rule="evenodd" d="M27.5025 3.35075C26.4884 3.76945 25.4044 4.0522 24.2621 4.18271C25.4277 3.53019 26.3252 2.49704 26.7448 1.26813C25.655 1.87171 24.4486 2.31216 23.1606 2.54598C22.129 1.51826 20.6604 0.876617 19.0402 0.876617C15.9222 0.876617 13.3986 3.23656 13.3986 6.1457C13.3986 6.55896 13.4453 6.96135 13.5443 7.34742C8.85277 7.12991 4.69156 5.03098 1.91159 1.83908C1.42787 2.61666 1.14812 3.52475 1.14812 4.48722C1.14812 6.31426 2.15054 7.92925 3.66583 8.8754C2.73334 8.85365 1.85914 8.61439 1.1015 8.21744C1.1015 8.23919 1.1015 8.26094 1.1015 8.28269C1.1015 10.8384 3.04806 12.9645 5.62987 13.4485C5.1578 13.5681 4.65659 13.6333 4.14373 13.6333C3.78239 13.6333 3.42688 13.6007 3.08303 13.5355C3.79987 15.629 5.88631 17.1515 8.35739 17.195C6.42831 18.6088 3.9922 19.4516 1.34627 19.4516C0.891688 19.4516 0.44293 19.4244 0 19.3755C2.48857 20.8872 5.45503 21.7572 8.63713 21.7572C19.0285 21.7572 24.705 13.7258 24.705 6.76015C24.705 6.53177 24.6992 6.30339 24.6875 6.08045C25.789 5.33549 26.7448 4.41109 27.5025 3.35075Z" fill="white"/>
</svg>
